<?xml version="1.0" ?><svg id="Layer_1" style="enable-background:new 0 0 64 64;" version="1.1" viewBox="0 0 64 64" xml:space="preserve" xmlns="http://www.w3.org/2000/svg" xmlns:xlink="http://www.w3.org/1999/xlink"><g><path d="M63.6134,38.31447L64,28.09689l-7.57844-1.84264c-0.46819-2.00971-1.18795-3.96066-2.1457-5.81544l4.5391-6.33414   L51.8679,6.60928l-6.65857,4.05974c-1.74259-1.08305-3.6338-1.95143-5.63769-2.58912l-1.26275-7.69985L28.09034-0.00753   l-1.84264,7.59252c-1.99709,0.46576-3.94269,1.18553-5.80087,2.14619l-6.33317-4.55367l-7.4949,6.94755l4.04663,6.65906   c-1.09665,1.77708-1.96212,3.66829-2.58086,5.63672l-7.69694,1.26372L0,35.90214l7.57941,1.84216   c0.46722,2.0102,1.18698,3.96115,2.1457,5.81593l-4.5391,6.33414l6.94706,7.49587l6.65954-4.06168   c1.78048,1.09811,3.66683,1.96358,5.62312,2.57941l1.26275,7.69548l10.21661,0.40408l1.84361-7.58329   c2.04857-0.48519,4-1.20787,5.81739-2.15493l6.33123,4.55221l7.4949-6.94755l-4.04663-6.65954   c1.09568-1.77708,1.96115-3.66829,2.58087-5.63671L63.6134,38.31447z M54.1865,38.42278   c-0.62943,2.19621-1.59009,4.2948-2.85478,6.23798L50.9898,45.1848l3.84944,6.33463l-5.11122,4.73774l-6.0272-4.33414   L43.1491,52.229c-1.97863,1.09859-4.14473,1.90189-6.4371,2.38659l-0.61292,0.12968l-1.7523,7.20981l-6.96843-0.27489   l-1.20253-7.3288L25.57067,54.178c-2.18164-0.62409-4.27489-1.58475-6.22438-2.8543l-0.5255-0.3424l-6.33414,3.86304   l-4.73822-5.11122l4.3186-6.02477l-0.30112-0.54881c-1.1151-2.03302-1.91452-4.19815-2.37397-6.43516l-0.12725-0.61777   l-7.21515-1.75377l0.26518-6.96843l7.32686-1.20301l0.17387-0.60612c0.62749-2.19524,1.58815-4.29383,2.85381-6.23701   l0.34191-0.52453L9.16173,12.4796l5.11122-4.73774l6.02331,4.33123l0.54978-0.30112c2.0408-1.1185,4.20107-1.91744,6.42156-2.37445   l0.61778-0.12725l1.75522-7.22827l6.96843,0.26421l1.20156,7.32346l0.60126,0.17581   c2.24672,0.65614,4.34483,1.62069,6.23798,2.86693l0.52647,0.34628l6.33803-3.8645l4.73822,5.1117l-4.3186,6.02428l0.30112,0.54881   c1.11413,2.03351,1.91355,4.19864,2.37397,6.43565l0.12725,0.61729l7.21418,1.75425l-0.26421,6.96843l-7.32686,1.20252   L54.1865,38.42278z"/><path d="M32.68261,13.94245c-9.96637-0.35806-18.36134,7.41021-18.73919,17.37664   c-0.3781,9.95653,7.41015,18.3614,17.37664,18.73938c0.22875,0.00996,0.4575,0.00996,0.68625,0.00996   c9.65809,0,17.68504-7.65888,18.05306-17.38666C50.43735,22.72523,42.63914,14.32042,32.68261,13.94245z M32.46406,19.77647   c2.92156,0.11079,5.20034,2.56921,5.08949,5.49089c-0.11086,2.92175-2.64728,7.26002-5.56909,7.14916   c-2.92156-0.11079-5.12215-4.62871-5.01141-7.55045C27.0839,21.94433,29.54225,19.66567,32.46406,19.77647z M41.93298,44.65748   c-2.88441,2.27774-6.57467,3.57079-10.54334,3.41167c-3.79954-0.13927-7.24102-1.60139-9.90675-3.91895v-4.69482   c0.11935-3.01378,2.64582-5.36116,5.64971-5.25176l1.7704,0.06963l2.75522,5.75905c0,0.03976,0.05962,0.03976,0.07953,0   l3.17302-5.5303l1.76044,0.05968c3.01384,0.11935,5.3713,2.65572,5.26178,5.66956V44.65748z"/></g></svg>